<?xml version="1.0" encoding="UTF-8" standalone="no"?>
<svg id="svg4136" xmlns:rdf="http://www.w3.org/1999/02/22-rdf-syntax-ns#" xmlns="http://www.w3.org/2000/svg" height="872" viewBox="0 0 1405 872" width="1405" version="1.1" xmlns:cc="http://creativecommons.org/ns#" xmlns:xlink="http://www.w3.org/1999/xlink" xmlns:dc="http://purl.org/dc/elements/1.1/">
<defs id="defs4140">
<linearGradient id="linearGradient4154" y2="201.25" gradientUnits="userSpaceOnUse" x2="779.89" y1="598.25" x1="605.76">
<stop id="stop4150" stop-color="#311400" offset="0"/>
<stop id="stop4152" stop-color="#9f4000" offset="1"/>
</linearGradient>
</defs>
<path id="path4146" fill="url(#linearGradient4154)" d="m1390.5 870.92c-12.004-3.5204-33.134-7.9358-35.494-7.4173-1.8035 0.39613-4.8339-0.21669-8.6416-1.7475-5.8841-2.3656-10.183-3.459-24.666-6.2739-26.281-5.1077-38.86-15.188-53.63-42.977-6.4855-12.202-7.5402-13.031-14.103-11.082-6.3013 1.8713-12.402 2.003-20.53 0.44351-3.3957-0.65147-17.269-1.1861-32.434-1.25-37.654-0.15857-41.207-2.3319-46.059-28.172-5.0878-27.095-6.4767-31.757-13.686-45.939-8.5278-16.776-8.0881-16.5-26.265-16.5-20.715 0-37.762-2.9326-52.491-9.0298-2.7583-1.1419-15.782-5.7226-22.821-8.0269-8.2355-2.6959-19.856-4.713-36.982-6.4196-23.452-2.337-31.475-5.4801-43.681-17.113-9.04-8.6-6.54-7.96-45.03-11.44-34.18-3.08-35.6-4.06-53.01-36.47-9.25-17.21-20.69-28.22-41.49-39.95-6.3428-3.5756-38.533-0.67846-83.25 7.4925-2.8875 0.52762-7.6125 1.3834-10.5 1.9018-2.8875 0.51839-7.725 1.4443-10.75 2.0575-24.632 4.9934-70.18 11.62-95.5 13.893-28.419 2.552-51.171 3.2475-69.678 2.1301-48.76-2.944-78.481-10.659-120.32-31.234-4.4-2.1637-10.391-4.3325-13.313-4.8195-2.9222-0.48707-9.2222-2.3017-14-4.0325-49.17-17.81-62.42-22.69-67.19-24.75-1.375-0.59261-5.6716-2.1854-9.5481-3.5395s-10.626-3.9042-15-5.6668c-11.036-4.4478-11.121-4.4814-18.876-7.4577-57.779-22.175-84.446-12.2-117.56 43.974-5.5379 9.3945-6.9017 11.825-14.027 25-2.3795 4.4-5.539 9.8-7.021 12-9.5758 14.215-9.2097 18.114 2.9577 31.5 3.7986 4.1792 6.4558 8.8957 12.095 21.468 6.2399 13.913 2.4848 23.56-17.206 44.202-5.6842 5.9588-11.621 12.521-13.194 14.582-3.7878 4.9661-3.9179 4.897-6.5912-3.502-1.2692-3.9875-3.1245-9.725-4.123-12.75-3.22-9.75-7.91-27.28-7.91-29.56 0-1.2179-1.5033-4.4024-3.3407-7.0766-13.31-19.36-20.728-35.29-26.736-57.36-2.273-8.35-5.785-15.95-12.532-27.14-10.493-17.39-8.699-23.72 16.271-57.36 9.797-13.2 19.627-29.02 27.427-44.12 26.95-52.21 37.94-59.43 79.91-52.41 3.575 0.59783 11 1.4872 16.5 1.9764 11.722 1.0425 15.444 1.7531 33.515 6.3984 33.471 8.6039 35.042 7.0419 30.023-29.847-2.0525-15.085-2.342-27.708-0.93755-40.875 1.7573-16.475 1.7756-35.448 0.0411-42.625-3.9425-16.313-10.285-30.642-18.148-41-3.1315-4.125-8.1707-11.325-11.198-16-11.092-17.128-36.678-37-47.638-37-0.54483 0-3.0055-0.86369-5.4682-1.9193-4.114-1.7634-4.8246-1.7998-8.75-0.44734-4.0639 1.4002-10.057 2.6-26.938 5.3937-10.441 1.7279-13.992 3.1411-26 10.348-5.775 3.4662-16.313 9.4122-23.418 13.213-13.649 7.3023-23.225 14.958-25.851 20.665-0.82138 1.7853-2.2506 4.8862-3.1761 6.8908-6.6313 14.364-22.736 20.015-30.907 10.844-2.4646-2.7661-3.0194-2.9465-6.9137-2.2482-18.438 3.32-25.477-1.65-28.204-19.9-1.514-10.14-3.216-12.74-11.495-17.51-2.4921-1.44-4.6806-2.73-4.8635-2.88-1.3596-1.1 1.3679-11.49 3.6822-14.03 8.5583-9.37 14.497-16.84 19.017-23.91 2.8118-4.4 5.567-8.5435 6.1226-9.2078 0.555-0.66 1.01-1.5 1.01-1.86 0-0.58 12.506-16.18 13.969-17.43 0.562-0.48 8.029-10.1 18.63-24 11.659-15.29 20.61-28.24 23.605-34.16 3.145-6.21 17.366-28.852 18.736-29.84 0.72469-0.52026 13.506-16.694 18.394-23.277 1.5425-2.0772 6.8225-7.7377 11.733-12.579l8.93-8.802v-6.006c0-6.3926 2.6783-15.961 6.1903-22.116 1.17-2.046 2.63-4.62 3.25-5.72 9.09-16.065 8.57-15.86 13.81-5.483 3.818 7.5588 4.6315 12.467 2.673 16.126-2.2455 4.1957-0.46534 4.9362 5.7766 2.4029 3.1902-1.2948 8.0387-2.6887 10.774-3.0976 5.07-0.75779 6.4507-1.7765 12.889-9.5099 1.5749-1.8916 4.8374-5.5575 7.25-8.1465 3.19-3.4219 4.39-5.5366 4.39-7.7492 0-2.3174 0.45-3.0428 1.89-3.0428 1.9927 0 2.0736 0.28371 3.989 14 0.89557 6.4131 1.8974 10 2.7932 10 1.3033 0 5.8862-3.0408 15.827-10.502 12.083-9.0686 17.173-11.965 23.534-13.395 6.5076-1.4622 9.6606 0.71135 4.4657 3.0783-6.0257 2.7455-2.6542 3.385 17.75 3.3666 22.365-0.020122 34.668 1.995 51.25 8.3948 13.226 5.1046 27.48 15.472 18.75 13.638-9.2582-1.9448-6.4717 4.1898 3.8212 8.4126 4.7004 1.9284 11.22 4.6141 14.488 5.9681 13.323 5.5208 37.75 18.398 50.441 26.591 21.147 13.652 28.719 17.278 44.538 21.331 11.496 2.9451 11.26 5.7026-0.78849 9.181-8.0833 2.3338-6.1917 4.5978 9.6091 11.501 22.94 10.022 42.492 27.028 50.973 44.338 3.002 6.1265 2.0928 7.5726-1.9486 3.0992-11.295-12.503-6.2736 5.4049 7.4778 26.666 7.3726 11.399 26.305 29.261 35.413 33.41 6.3288 2.8836 0.93215 3.6192-9.524 1.2983-4.6236-1.0263-3.3913 2.5814 3.3106 9.6923 7.1906 7.6293 10.211 13.175 11.861 21.778 1.5667 8.1688 1.6507 8.1595-5.9505 0.65585-8.2484-8.1426-14.348-11.554-16.611-9.2914-2.8794 2.8794 2.0139 10.706 8.184 13.09 9.992 3.8605 20.237 9.343 31.956 17.101 14.96 9.89 44.49 28.59 45.18 28.59 0.28101 0 1.7538 0.88501 3.2729 1.9667 7.8022 5.5557 45.631 25.801 57.047 30.531 3.575 1.4811 7.85 3.2739 9.5 3.9839 1.65 0.70998 5.475 2.1984 8.5 3.3075 3.025 1.1092 7.3507 2.707 9.6126 3.5508 24.652 9.1959 40.953 10.775 114.89 11.13 42.876 0.20582 57.866 0.61484 68 1.8554 25.496 3.1212 45.18 6.0357 55 8.1437 18.483 3.9676 28.923 6.7687 37.5 10.061 11.011 4.227 13.988 4.6778 23.018 3.4862 51.782-6.8331 59.427-6.6773 96.982 1.9757 24.601 5.6684 41.313 8.2081 75.5 11.474 45.944 4.3889 61.506 9.3244 78.015 24.742 16.512 15.42 26.344 44.926 21.758 65.292-0.8149 3.6183-0.9644 3.0594-1.567-5.8574-2.6867-39.757-24.724-62.08-61.206-62-11.571 0.0253-18.788 1.3006-24.421 4.3158-5.0763 2.7168-2.2147 4.1042 14.421 6.9919 35.838 6.2208 48.54 12.788 56.252 29.086 5.1723 10.93 6.8257 37.243 2.6053 41.464-4.8101 4.81 0.2002 30.153 7.4634 37.751 3.2951 3.447 3.4067 3.75 1.3817 3.75-4.5802 0-2.2977 2.77 9.7774 11.866 11.06 8.331 11.91 9.1375 15.945 15.134 4.5116 6.7048 7.6299 13.997 8.5525 20 0.6916 4.4999 0.6916 4.5-1.0466 2-6.0973-8.7694-10.194-11.077-32.002-18.022-8.9857-2.8617-9.3316 0.66442-0.8602 8.769 7.3893 7.0693 7.7265 8.4086 1.34 5.323-17.865-8.6314 0.6496 17.97 22.818 32.784 16.89 11.287 25.821 22.475 28.756 36.021 0.8465 3.9074-0.985 3.5642-2.5196-0.47225-0.5025-1.3216-1.6479-2.4029-2.5453-2.4029-1.1698 0-1.4219 0.49546-0.8905 1.75 5.4374 12.837 4.3154 38.24-2.2934 51.926-5.6867 11.777-11.475 17.403-9.1167 8.8613 4.5187-16.365-17.027-41.752-52.617-61.998-33.441-19.023-54.68-40.932-71.291-73.54-9.1329-17.928-9.8787-18.083-11.421-2.374-1.6807 17.118 2.0896 32.727 9.3884 38.869 4.1539 3.4953 2.8962 4.306-1.7657 1.1382-6.4831-4.4054-6.327-0.76938 0.2726 6.348 3.6368 3.9222 0.7495 3.6145-4.2089-0.44855-17.096-14.009-21.856-29.792-21.322-70.699 0.1913-14.666 0.03-26.984-0.359-27.374-1.6775-1.6789-3.513 0.746-4.6835 6.1876-0.6923 3.2186-1.6468 7.4271-2.1211 9.3521-4.2864 17.399-6.3607 28.936-6.4274 35.749-0.069 7.0324-0.2747 7.2494-3.5611 3.7512-2.9929-3.1858-4.7931-3.1727-5.5995 0.0406-1.6753 6.6746 5.8293 21.713 17.08 34.226 3.0424 3.3838 4.1555 5.2331 3.1499 5.2331-2.1638 0-12.497-3.9471-16.124-6.1595-8.6001-5.2446-8.5342-0.0282 0.1153 9.1408 7.6535 8.113 6.5267 9.3468-3.6047 3.9468-6.9924-3.7269-10.647-7.4051-15.77-15.87-5.9224-9.7867-9.3035-8.6551-7.0888 2.3725 1.4871 7.405 0.4655 8.0199-4.2691 2.5695-10.63-12.237-11.051-26.397-1.8611-62.5 6.1353-24.103 3.7477-48.147-3.0101-30.313-4.1848 11.044-7.9965 14.652-7.2478 6.8607 0.6265-6.5204-1.4831-32.586-3.3928-41.92-5.4482-26.631-29.909-72.315-40.201-75.082-11.474-3.0845-12.288 1.0794-2.8704 14.691 7.0678 10.216 19.695 30.657 19.695 31.883 0 0.3146 0.8371 1.7665 1.8602 3.2264 2.5736 3.6724 14.149 34.224 15.971 42.154 1.2178 5.2996 1.4566 14.303 1.2935 48.753-0.2694 56.905-0.3747 56.568 21.875 69.996 14.153 8.5418 27.149 11.25 53.979 11.25 23.385 0 39.218 3.3964 45.604 9.7832 5.6512 5.6512 14.605 22.747 32.585 62.217 5.0942 11.183 13.396 27.319 17.7 34.403 2.2726 3.7408 4.132 6.9824 4.132 7.2036 0 1.8218 18.267 26.58 26.774 36.287 2.5995 2.9664 5.0848 6.0015 5.523 6.7447 0.4382 0.74319 3.8132 3.7639 7.5 6.7127 5.4461 4.3559 7.4357 6.7924 10.608 12.991 6.112 11.941 8.4827 12.893 22.991 9.2317 23.534-5.938 40.06 3.9816 47.659 28.606 1.6988 5.5052 3.9547 11.429 5.013 13.165 1.0994 1.803 1.9258 4.9775 1.928 7.4057v4.25l-5.75-0.10209c-3.1625-0.0562-7.1-0.49799-8.75-0.98188zm-164-105.06c1.65-0.58317 3.9-1.4299 5-1.8816 1.1-0.45171 3.2568-1.0947 4.7928-1.4289 5.6744-1.2345 4.2947-4.8168-7.3365-19.048-13.268-16.234-24.509-24.531-39.856-29.418-12.133-3.8634-13.044-0.78234-3.8886 13.146 4.0752 6.1995 9.1327 14.422 11.239 18.272 11.341 20.73 17.394 24.831 30.049 20.358zm-1095.9-198.11c4.3401-4.5375 11.449-13.2 15.798-19.25s9.6002-13.25 11.669-16c5.6332-7.4872 15.987-24.857 20.728-34.774 2.3069-4.8257 5.3452-10.597 6.7518-12.825 3.0582-4.8445 2.0992-6.9008-3.2183-6.9008-12.544 0-35.475 26.259-51.522 59-9.0099 18.383-9.9972 20.914-11.87 30.434-2.189 11.127 1.233 11.22 11.663 0.31604z"/>
</svg>
